<?xml version="1.0" encoding="UTF-8"?>
<!DOCTYPE svg PUBLIC "-//W3C//DTD SVG 1.1//EN" "http://www.w3.org/Graphics/SVG/1.1/DTD/svg11.dtd">
<!-- Creator: CorelDRAW 2021.5 -->
<svg xmlns="http://www.w3.org/2000/svg" xml:space="preserve" width="5in" height="5in" version="1.1" style="shape-rendering:geometricPrecision; text-rendering:geometricPrecision; image-rendering:optimizeQuality; fill-rule:evenodd; clip-rule:evenodd"
viewBox="0 0 5000 5000"
 xmlns:xlink="http://www.w3.org/1999/xlink"
 xmlns:xodm="http://www.corel.com/coreldraw/odm/2003">
 <defs>
  <style type="text/css">
   <![CDATA[
    .fil1 {fill:url(#id0)}
    .fil0 {fill:url(#id1)}
    .fil2 {fill:url(#id2)}
   ]]>
  </style>
  <linearGradient id="id0" gradientUnits="userSpaceOnUse" x1="2920.56" y1="1601.48" x2="2939.44" y2="2314.38">
   <stop offset="0" style="stop-opacity:1; stop-color:#FF9100"/>
   <stop offset="0.658824" style="stop-opacity:1; stop-color:#FF5E00"/>
   <stop offset="1" style="stop-opacity:1; stop-color:#FF2A00"/>
  </linearGradient>
  <linearGradient id="id1" gradientUnits="userSpaceOnUse" xlink:href="#id0" x1="789.1" y1="1543.58" x2="838.56" y2="2169.47">
  </linearGradient>
  <linearGradient id="id2" gradientUnits="userSpaceOnUse" xlink:href="#id0" x1="973.46" y1="1687.16" x2="1159.63" y2="2920.66">
  </linearGradient>
 </defs>
 <g id="Layer_x0020_1">
  <metadata id="CorelCorpID_0Corel-Layer"/>
  <path class="fil0" d="M617.44 2169.78l-211.52 -143.93 134.39 34.08c-138.63,-414.73 356.05,-666.54 681.41,-418.22l-134.63 -12.43 30.59 126.36c-297.69,-171.62 -635.33,7.98 -555.24,296.27l76.76 -116.54 -21.77 234.41z"/>
  <path class="fil1" d="M1684.55 2042.91c0.59,11.42 1.58,22.81 3.23,33.94 1.74,11.78 4.71,25.28 10.39,35.86 2.76,5.13 6.38,9.61 11.7,12.19l0.51 0.25c7.34,3.73 17.37,4.57 25.46,4.57 11.27,0 22.54,-0.62 33.74,-1.96 9.14,-1.1 18.46,-2.38 27.45,-4.41l0.92 -0.2c7.67,-1.49 15.57,-3.32 22.89,-6.09l41.83 -15.84 0 156.63 -12.32 9.27c-11.41,8.58 -23.57,16.08 -36.05,22.37 -12.18,6.44 -25.51,11.49 -38.93,15.7 -16.45,5.16 -33.41,7.56 -50.64,7.56 -27.55,0 -53.61,-7 -76.74,-22.03 -25.44,-16.53 -42.94,-42.24 -55.52,-69.37 -15.84,-34.17 -24.62,-73.74 -30.18,-110.84 -7.85,-52.3 -9.89,-106.68 -9.89,-159.52 0,-53.64 2.35,-110.64 12.87,-163.35 7.15,-35.83 17.8,-74.41 35.99,-106.33 14.14,-24.81 33.01,-47.52 58.64,-60.99 21.15,-11.12 43.84,-17.22 67.75,-17.22 28.49,0 55.18,7.94 77.14,26.53 20.75,17.56 35.06,40.92 44.86,66.06 11.19,28.7 17.3,59.85 20.72,90.39 4.08,36.43 5.65,73.19 5.65,109.83 0,19.09 -0.37,38.19 -0.99,57.28 -0.66,20.15 -1.51,40.3 -2.56,60.44l-1.52 29.28 -186.39 0zm345.95 0c0.6,11.42 1.59,22.82 3.23,33.94 1.74,11.78 4.7,25.28 10.39,35.86 2.76,5.13 6.38,9.61 11.7,12.19l0.51 0.25c7.34,3.73 17.37,4.57 25.46,4.57 11.27,0 22.54,-0.62 33.73,-1.96 9.14,-1.1 18.46,-2.38 27.45,-4.41l0.93 -0.2c7.68,-1.49 15.58,-3.32 22.91,-6.09l41.82 -15.83 0 156.63 -12.32 9.27c-11.41,8.58 -23.57,16.08 -36.05,22.37 -12.19,6.44 -25.52,11.49 -38.94,15.7 -16.44,5.16 -33.41,7.56 -50.64,7.56 -27.54,0 -53.61,-7 -76.74,-22.03 -25.44,-16.53 -42.94,-42.24 -55.52,-69.37 -15.84,-34.17 -24.62,-73.74 -30.19,-110.84 -7.85,-52.3 -9.89,-106.68 -9.89,-159.52 0,-53.64 2.35,-110.64 12.87,-163.35 7.15,-35.83 17.8,-74.41 35.99,-106.33 14.14,-24.81 33.01,-47.51 58.64,-60.98 21.15,-11.12 43.85,-17.22 67.76,-17.22 28.48,0 55.17,7.94 77.13,26.53 20.75,17.56 35.06,40.92 44.87,66.06 11.19,28.7 17.3,59.85 20.72,90.39 4.08,36.43 5.65,73.19 5.65,109.83 0,19.09 -0.37,38.19 -0.99,57.28 -0.66,20.15 -1.51,40.3 -2.56,60.44l-1.53 29.28 -186.39 0zm354.52 -394.6c1.85,-1.37 3.72,-2.71 5.62,-4.02 22.98,-15.95 48.89,-25.07 76.7,-27.94l34.19 -3.52 -0.85 206.78 -29.73 0.98c-18.54,0.62 -37.76,2.31 -55.86,6.54 -7.24,1.7 -14.24,4.13 -20.75,7.56l0 460.23 -129.58 0 0 -673.98 118.62 0 1.64 27.37zm258.29 -10.74c11.7,-8.14 24.31,-15.04 37.11,-21.25 18.2,-8.83 37.77,-13.2 58,-13.2 44.65,0 76.12,25.77 94.02,65.57 20.73,46.09 23.95,111.17 23.95,161.06l0 465.18 -129.58 0 0 -448.54c0,-12.58 -0.24,-25.39 -1.42,-37.91 -0.5,-5.3 -1.51,-12.64 -3.84,-17.51 -0.46,-0.97 -0.96,-1.83 -1.59,-2.18 -2.26,-1.18 -8.43,-1.45 -11.25,-1.45 -7.22,0 -14.76,0.69 -21.67,2.89 -6.76,2.16 -13.54,4.55 -20.05,7.38 -1.16,0.6 -2.31,1.22 -3.47,1.85l0 495.47 -129.58 0 0 -673.98 106.33 0 3.03 16.62zm458.78 244.59l0 -6.85c0,-11.56 -0.07,-23.19 -0.65,-34.74 -0.37,-7.54 -0.97,-15.15 -2.12,-22.61 -0.57,-3.79 -1.44,-8.17 -2.89,-11.74 -1.24,-3.08 -2.69,-6.18 -4.39,-9.05 -2.61,-3.54 -5.91,-5.68 -9.82,-7.14 -9.14,-3.21 -21.28,-3.9 -31.17,-3.9 -9.15,0 -18.32,0.46 -27.39,1.7 -8.04,1.09 -16.05,2.57 -23.93,4.52l-1.03 0.24c-8.22,1.74 -16.48,3.54 -24.56,5.84l-39.31 11.14 0 -152.01 11.1 -9.26c10.55,-8.8 22.68,-15.66 35.13,-21.38l0.57 -0.26c12.87,-5.61 26.55,-9.86 40.11,-13.44 18.98,-5 39.15,-6.57 58.72,-6.57 13.85,0 27.87,0.95 41.44,3.86 13.19,2.82 25.89,7.62 37.25,14.94 11.31,7.29 20.89,16.57 28.9,27.34 8.4,11.3 14.97,24.06 20.18,37.11 4.69,11.76 8.35,23.92 11.35,36.22 3.44,14.12 5.61,28.74 7.3,43.17 2.1,18.04 3.16,36.26 3.79,54.41 0.8,23.05 0.99,46.16 0.99,69.22l0 401.98 -116.23 0 -0.97 -8.51c-6.44,4.53 -13.16,8.69 -20.04,12.53 -16.59,9.24 -34.69,13.81 -53.7,13.81 -20.76,0 -41.07,-4.21 -59.22,-14.55 -18.75,-10.67 -32.47,-26.85 -42.16,-45.94 -10.72,-21.11 -16.53,-45.3 -19.89,-68.62 -4.41,-30.62 -5.57,-62.26 -5.57,-93.16 0,-31.27 1.83,-63.83 8.25,-94.49 4.83,-23.07 12.15,-46.85 24.2,-67.24 10.39,-17.58 24.04,-33.13 42.05,-43.17 16.39,-9.12 34.16,-13.81 52.93,-13.81 15.28,0 30.65,1.6 45.41,5.66 5.17,1.43 10.31,2.99 15.36,4.73zm309 -244.59c11.7,-8.14 24.31,-15.04 37.11,-21.25 18.2,-8.83 37.77,-13.2 58,-13.2 44.66,0 76.11,25.77 94.02,65.57 20.73,46.09 23.95,111.17 23.95,161.06l0 465.18 -129.57 0 0 -448.54c0,-12.58 -0.25,-25.39 -1.43,-37.92 -0.5,-5.31 -1.51,-12.63 -3.83,-17.51 -0.47,-0.98 -0.96,-1.82 -1.6,-2.18 -2.26,-1.17 -8.44,-1.44 -11.25,-1.44 -7.22,0 -14.76,0.69 -21.67,2.89 -6.76,2.16 -13.54,4.55 -20.05,7.38 -1.15,0.6 -2.31,1.22 -3.46,1.84l0 495.48 -129.58 0 0 -673.98 106.33 0 3.04 16.62zm487.19 156.56c-7,-0.85 -14,-1.62 -21,-2.47 -7.3,-0.88 -14.65,-1.36 -22.01,-1.36 -7.86,0 -16.31,1.06 -23.19,4.36 -4.69,2.36 -8.5,9.15 -10.7,13.93 -6.64,14.42 -9.76,34.88 -11.6,50.52 -3.76,31.93 -4.37,65.31 -4.37,97.43 0,32.58 0.67,66.8 4.99,99.13 2.15,16.1 5.81,36.62 13.16,51.26 2.44,4.85 6.87,12.24 12.12,14.6 7.95,3.57 17.29,4.61 25.93,4.61 7.3,0 14.73,-0.24 21.98,-1.14l0.73 -0.08c5.6,-0.57 11.22,-1.42 16.69,-2.71 4.87,-1.15 9.72,-2.59 14.38,-4.43l42.18 -16.56 0 152.92 -7.77 8.77c-8.45,9.54 -18.27,17.59 -29.07,24.34 -10.6,6.62 -22.45,11.61 -34.25,15.68 -15.82,5.46 -32.76,7.44 -49.43,7.44 -24.68,0 -47.64,-7.07 -68.52,-20.18 -24.31,-15.24 -41.43,-39.72 -53.83,-65.13 -16.04,-32.91 -25.26,-71.26 -31.42,-107.19 -8.95,-52.25 -10.96,-107.61 -10.96,-160.55 0,-50.74 2.33,-103.09 10.86,-153.19 6.11,-35.91 15.22,-73.68 30.73,-106.79 11.99,-25.59 28.47,-50.57 51.62,-67.37 20.52,-14.88 43.77,-23.32 69.18,-23.32 15.99,0 31.96,2.06 47.17,7.13 11.41,3.8 22.81,8.32 33.37,14.12 10.71,5.89 20.83,12.95 29.8,21.26l9.89 9.17 0 144.81 -35.6 -5.5c-7.03,-1.08 -14.04,-2.28 -21.05,-3.54zm217.86 248.78c0.59,11.42 1.59,22.82 3.23,33.94 1.74,11.78 4.71,25.28 10.39,35.86 2.76,5.13 6.38,9.61 11.69,12.19l0.51 0.25c7.34,3.73 17.37,4.57 25.46,4.57 11.27,0 22.54,-0.62 33.73,-1.96 9.15,-1.1 18.46,-2.38 27.45,-4.41l0.93 -0.2c7.68,-1.49 15.57,-3.32 22.91,-6.09l41.82 -15.83 0 156.63 -12.32 9.27c-11.41,8.58 -23.57,16.08 -36.05,22.37 -12.19,6.44 -25.51,11.49 -38.94,15.7 -16.44,5.16 -33.41,7.56 -50.64,7.56 -27.54,0 -53.61,-7 -76.74,-22.03 -25.44,-16.53 -42.94,-42.24 -55.52,-69.37 -15.84,-34.17 -24.62,-73.74 -30.19,-110.84 -7.85,-52.3 -9.89,-106.68 -9.89,-159.52 0,-53.64 2.35,-110.64 12.87,-163.35 7.15,-35.83 17.8,-74.41 35.99,-106.33 14.14,-24.81 33.01,-47.51 58.64,-60.98 21.15,-11.12 43.85,-17.22 67.76,-17.22 28.48,0 55.17,7.94 77.13,26.53 20.75,17.56 35.06,40.92 44.87,66.06 11.19,28.7 17.3,59.85 20.72,90.39 4.08,36.43 5.65,73.19 5.65,109.83 0,19.09 -0.37,38.19 -0.99,57.28 -0.66,20.15 -1.51,40.3 -2.56,60.44l-1.53 29.28 -186.39 0zm-2364.47 -165.2c-0.12,-16.58 -0.62,-33.24 -2,-49.73 -0.93,-11.05 -2.65,-23.81 -6.68,-34.21 -1.45,-3.72 -3.8,-8.49 -7.22,-10.82 -3.4,-2.32 -10.53,-2.75 -14.44,-2.75 -5.41,0 -11.89,0.69 -16.37,4.06 -5.19,3.92 -8.61,10.68 -10.86,16.6 -4.87,12.85 -7.11,27.94 -8.35,41.57 -1.06,11.71 -1.73,23.49 -2.13,35.28l68.05 0zm345.95 0c-0.12,-16.58 -0.61,-33.24 -2,-49.73 -0.93,-11.05 -2.65,-23.81 -6.68,-34.21 -1.44,-3.72 -3.8,-8.49 -7.22,-10.82 -3.4,-2.32 -10.53,-2.75 -14.44,-2.75 -5.41,0 -11.89,0.69 -16.37,4.06 -5.19,3.91 -8.61,10.69 -10.85,16.6 -4.87,12.85 -7.12,27.94 -8.35,41.57 -1.06,11.71 -1.73,23.49 -2.13,35.28l68.05 0zm953.17 257c3.33,0.74 6.96,0.95 10.3,0.95 5.33,0 10.38,-0.87 15.28,-3l0.54 -0.22c6.18,-2.55 12.2,-5.57 17.81,-9.22 2.54,-1.66 5,-3.44 7.38,-5.34l0 -69.89c-4.89,-1.52 -9.9,-2.69 -14.93,-3.6 -6.22,-1.12 -12.65,-1.49 -18.96,-1.49 -5.16,0 -11.34,0.17 -16.44,1.53 -0.13,0.11 -0.23,0.27 -0.33,0.41 -1.72,2.18 -3.17,8.15 -3.7,10.78 -2.22,10.94 -2.5,23.72 -2.5,34.86 0,10.93 0.25,23.61 2.48,34.35 0.48,2.32 1.66,7.33 3.09,9.89zm1132.47 -257c-0.12,-16.58 -0.61,-33.24 -2,-49.73 -0.93,-11.05 -2.65,-23.81 -6.68,-34.21 -1.44,-3.71 -3.8,-8.49 -7.21,-10.82 -3.41,-2.32 -10.53,-2.75 -14.45,-2.75 -5.41,0 -11.89,0.69 -16.37,4.06 -5.19,3.91 -8.61,10.69 -10.85,16.6 -4.87,12.85 -7.12,27.94 -8.35,41.57 -1.06,11.71 -1.73,23.49 -2.13,35.28l68.05 0z"/>
  <path class="fil2" d="M813.83 2931.4l0 -642.7c496.11,186.05 848.35,-242.37 537.94,-542.17l142.51 -37.59 -352.08 -32.51 82.87 322.6 35.48 -157.17c76.3,114.54 67.84,257.17 -49.96,340.28 -129.5,91.38 -363.89,103.56 -571.79,9l0 740.27 175.02 0z"/>
 </g>
</svg>
